# xmcd CD database file
#
# Track frame offsets:
#	150
#	12231
#	25614
#	38027
#	50175
#	82729
#	95175
#	141145
#	153706
#	164749
#	192061
#	211530
#	238105
#	251649
#
# Disc length: 3573 seconds
#
# Revision: 0
# Processed by: cddbd v1.5.2PL0 Copyright (c) Steve Scherf et al.
# Submitted via: CDex 1.51
#
DISCID=b70df30e
DTITLE=Fania - Signature Fania - Latin Sould
DYEAR=2006
DGENRE=Salsa
TTITLE0=01 - Willie Whopper (Willie Colón)
TTITLE1=02 - Fat Mama (Tito Puente)
TTITLE2=03 - Fever (La Lupe)
TTITLE3=04 - New York Soul (Ray Barretto)
TTITLE4=05 - Latin Roots (Larry Harlow)
TTITLE5=06 - Latin Gravy (Johnny Pacheco)
TTITLE6=07 - Somebody's Sons (Eddie Palmieri)
TTITLE7=08 - Ordinary Guy (Joe Bataan)
TTITLE8=09 - Together (The Lebron Brothers)
TTITLE9=10 - Sofrito (Mongo Santamaria)
TTITLE10=11 - Now You Know (The Lat-Teens)
TTITLE11=12 - Workout (Bobby Rodriguez)
TTITLE12=13 - Come And Get It (Ralph Robles)
TTITLE13=14 - Banana Freak Out (George Guzman)
EXTD=YEAR: 2006
EXTT0=
EXTT1=
EXTT2=
EXTT3=
EXTT4=
EXTT5=
EXTT6=
EXTT7=
EXTT8=
EXTT9=
EXTT10=
EXTT11=
EXTT12=
EXTT13=
PLAYORDER=
